<svg width="57" height="34" viewBox="0 0 57 34" fill="none" xmlns="http://www.w3.org/2000/svg">
<path d="M20.6964 0.5V3.24624L19.8039 3.07353V1.79721V1.29721H19.3039H1.89255H1.39255V1.79721V25.1608V25.6608H1.89255H19.3039H19.8039V25.1608V4.09208L20.6964 4.2648V26.458H0.5V0.5H20.6964ZM10.9814 15.2555H10.0888V13.979H10.9814L10.9814 15.2555ZM6.18693 13.979L6.18698 15.2555H5.29436V13.979H6.18693ZM10.9814 18.7301H10.0888V17.4536H10.9814L10.9814 18.7301ZM6.18698 18.7301H5.29436V17.4536H6.18693L6.18698 18.7301ZM10.9814 22.0848H10.0888V20.8084H10.9814L10.9814 22.0848ZM6.18698 22.0848H5.29436V20.8084H6.18693L6.18698 22.0848ZM15.7758 15.2555H14.8833V13.979H15.7758V15.2555Z" fill="white" stroke="white"/>
<path d="M22.5 17C24.9841 17.003 26.997 19.0367 27 21.546V21.5463C26.9799 22.4635 26.7275 23.317 26.3 24.0545L26.3132 24.0299C25.8913 24.7798 25.4086 25.427 24.8547 26.004L24.857 26.0016C24.2305 26.6687 23.5453 27.2676 22.806 27.7939L22.7629 27.8229L22.5 28L22.2371 27.8229C21.4547 27.2675 20.7695 26.6687 20.1486 26.0076L20.1429 26.0015C19.5914 25.4269 19.1087 24.7798 18.7114 24.077L18.6868 24.0299C18.2726 23.317 18.0201 22.4635 18.0001 21.552L18 21.5462C18.003 19.0366 20.0159 17.003 22.4997 17H22.5V17ZM22.5 26.8343C23.3626 26.1849 26.0526 23.9659 26.0526 21.5463C26.0526 19.564 24.4621 17.9571 22.5 17.9571C20.5379 17.9571 18.9474 19.564 18.9474 21.5463C18.9474 23.9711 21.6365 26.1858 22.5 26.8343V26.8343ZM22.5 23.8337C21.2501 23.8324 20.2371 22.8091 20.2358 21.5464V21.5463H21.1832C21.1832 22.281 21.7727 22.8767 22.5 22.8767C23.2273 22.8767 23.8168 22.281 23.8168 21.5463C23.8168 20.8115 23.2273 20.2159 22.5 20.2159V19.2588C23.7505 19.2588 24.7642 20.2829 24.7642 21.5463C24.7642 22.8096 23.7505 23.8338 22.5 23.8338L22.5 23.8337Z" fill="white"/>
<line x1="3" y1="3.5" x2="18" y2="3.5" stroke="white"/>
</svg>
